<?xml version="1.0" encoding="utf-8"?>
<!-- Generator: Adobe Illustrator 18.1.1, SVG Export Plug-In . SVG Version: 6.00 Build 0)  -->
<svg version="1.1" xmlns="http://www.w3.org/2000/svg" xmlns:xlink="http://www.w3.org/1999/xlink" x="0px" y="0px"
	 viewBox="0 0 60 60" enable-background="new 0 0 60 60" xml:space="preserve">
<g id="Layer_1">
</g>
<g id="Layer_2">
</g>
<g id="Layer_22">
</g>
<g id="Layer_23">
	<g id="Notification">
		<path fill="none" stroke="#000000" stroke-width="3" stroke-linecap="round" stroke-linejoin="round" stroke-miterlimit="10" d="
			M43,44.6c0.3-4-1.8-4.9,0.6-10.3c6-13.7,3.2-16.4,0.4-18.6c0,0,0,0,0,0c-0.1-0.1-0.2-0.2-0.4-0.2c-0.1-0.1-0.2-0.2-0.3-0.3
			c0,0,0,0,0,0c-3-1.9-6.5-3.7-17.5,6.4c-4.4,4-6.1,2.6-9.6,3.9c-3.2,1.1-4.2,2.6-3.5,4c0.7,1.4,6.2,8.6,11.6,12
			c0.2,0.1,0.8,0.5,0.9,0.6c5,4,13.7,6.9,15.2,7.1C41.9,49.4,42.8,48,43,44.6z"/>
		
			<circle fill="none" stroke="#000000" stroke-width="3" stroke-linecap="round" stroke-linejoin="round" stroke-miterlimit="10" cx="45.1" cy="13.3" r="2.5"/>
		<path fill="none" stroke="#000000" stroke-width="3" stroke-linecap="round" stroke-linejoin="round" stroke-miterlimit="10" d="
			M26.9,45.5c-1.4,0.9-3.3,1-4.7-0.1c-1.4-1-2-2.8-1.6-4.4"/>
	</g>
</g>
<g id="Layer_15">
</g>
<g id="Layer_16">
</g>
<g id="Layer_17">
</g>
<g id="Layer_18">
</g>
<g id="Layer_19">
</g>
<g id="Layer_20">
</g>
<g id="Layer_21">
</g>
<g id="Layer_3">
</g>
<g id="Layer_4">
</g>
<g id="Layer_5">
</g>
<g id="Layer_6">
</g>
<g id="Layer_7">
</g>
<g id="Layer_8">
</g>
<g id="Layer_9">
</g>
<g id="Layer_10">
</g>
<g id="Layer_11">
</g>
<g id="Layer_12">
</g>
<g id="Layer_13">
</g>
<g id="Layer_14">
</g>
</svg>
