<?xml version="1.0" encoding="utf-8"?>
<!-- Generator: Adobe Illustrator 18.1.1, SVG Export Plug-In . SVG Version: 6.00 Build 0)  -->
<svg version="1.1" xmlns="http://www.w3.org/2000/svg" xmlns:xlink="http://www.w3.org/1999/xlink" x="0px" y="0px"
	 viewBox="0 0 60 60" enable-background="new 0 0 60 60" xml:space="preserve">
<g id="Layer_1">
</g>
<g id="Layer_2">
</g>
<g id="Layer_22">
</g>
<g id="Layer_23">
</g>
<g id="Layer_15">
</g>
<g id="Layer_16">
</g>
<g id="Layer_17">
</g>
<g id="Layer_18">
</g>
<g id="Layer_19">
</g>
<g id="Layer_20">
</g>
<g id="Layer_21">
</g>
<g id="Layer_3">
</g>
<g id="Layer_4">
</g>
<g id="Layer_5">
</g>
<g id="Layer_6">
</g>
<g id="Layer_7">
</g>
<g id="Layer_8">
</g>
<g id="Layer_9">
</g>
<g id="Layer_10">
</g>
<g id="Layer_11">
</g>
<g id="Layer_12">
</g>
<g id="Layer_13">
</g>
<g id="Layer_14">
	<g id="Settings">
		<path fill="none" stroke="#000000" stroke-width="3" stroke-linecap="round" stroke-linejoin="round" stroke-miterlimit="10" d="
			M31.1,49.2h-2.3c-1.7,0-3.2-1.4-3.2-3.1l-0.4-1.1c-0.9-0.3-1.7-0.6-2.5-1l-1,0.5c-1.2,1.1-3.3,1.1-4.5-0.1l-1.6-1.6
			c-0.6-0.6-1-1.4-1-2.3c0-0.8,0.3-1.6,0.8-2.2l0.5-1c-0.4-0.8-0.8-1.7-1-2.5l-1.1-0.4c-1.7-0.1-3.1-1.5-3.1-3.2v-2.3
			c0-1.7,1.4-3.2,3.1-3.2l1.1-0.4c0.3-0.9,0.6-1.7,1.1-2.5l-0.5-1c-0.5-0.6-0.8-1.4-0.8-2.2c0-0.9,0.3-1.7,1-2.3l1.6-1.6
			c0.6-0.6,1.4-1,2.3-1c0.6,0,1.3,0,2,0.6l1.1,0.5c0.8-0.4,1.7-0.8,2.7-1.1l0.4-0.9c0.1-1.7,1.5-3,3.2-3h2.3c1.7,0,3.2,1.4,3.2,3.1
			l0.4,1.1c0.9,0.3,1.8,0.6,2.6,1.1l1-0.5c0.6-0.5,1.5-1.1,2.3-1.1c1,0,1.6,0.6,2.1,1.1l1.7,1.7c0.6,0.6,1,1.4,1,2.3
			c0,0.8-0.3,1.6-0.8,2.2l-0.5,1c0.4,0.8,0.8,1.7,1.1,2.6l1.1,0.4c1.7,0.1,3.1,1.5,3.1,3.2v2.3c0,1.7-1.4,3.2-3.1,3.2l-1.1,0.4
			c-0.3,0.9-0.6,1.8-1.1,2.6l0.5,1c0.5,0.6,0.8,1.4,0.8,2.2c0,0.9-0.3,1.7-1,2.3l-1.6,1.6c-1.2,1.2-3.2,1.2-4.5,0.1l-1-0.5
			c-0.8,0.4-1.7,0.8-2.6,1.1l-0.4,1.1C34.3,47.9,32.9,49.2,31.1,49.2z"/>
		
			<circle fill="none" stroke="#000000" stroke-width="3" stroke-linecap="round" stroke-linejoin="round" stroke-miterlimit="10" cx="30" cy="30" r="5.1"/>
	</g>
</g>
</svg>
