<?xml version="1.0" encoding="utf-8"?>
<!-- Generator: Adobe Illustrator 18.1.1, SVG Export Plug-In . SVG Version: 6.00 Build 0)  -->
<svg version="1.1" xmlns="http://www.w3.org/2000/svg" xmlns:xlink="http://www.w3.org/1999/xlink" x="0px" y="0px"
	 viewBox="0 0 60 60" enable-background="new 0 0 60 60" xml:space="preserve">
<g id="Layer_1">
</g>
<g id="Layer_2">
</g>
<g id="Layer_22">
</g>
<g id="Layer_23">
</g>
<g id="Layer_15">
</g>
<g id="Layer_16">
</g>
<g id="Layer_17">
</g>
<g id="Layer_18">
</g>
<g id="Layer_19">
</g>
<g id="Layer_20">
</g>
<g id="Layer_21">
</g>
<g id="Layer_3">
	<g id="Hide">
		<g>
			<path fill="none" d="M30,37.6c6.5,0,12.5-2.5,17.9-7.6c-2.8-2.5-5.9-4.3-8.9-5.5L26.4,37.2C27.7,37.4,28.9,37.6,30,37.6z"/>
			<path fill="none" d="M12.1,30c2.7,2.5,5.9,4.3,8.9,5.5l12.7-12.7c-1.3-0.3-2.6-0.4-3.6-0.4C23.5,22.4,17.5,25,12.1,30z"/>
			<path d="M12.1,30c5.4-5,11.5-7.6,17.9-7.6c1.1,0,2.3,0.1,3.6,0.4l2.5-2.5c-2.2-0.6-4.3-0.9-6.1-0.9c-7.7,0-14.9,3.2-21.2,9.5
				c-0.6,0.6-0.6,1.5,0,2.1c3,3,6.4,5.2,9.8,6.8l2.3-2.3C17.9,34.3,14.8,32.5,12.1,30z"/>
			<path d="M51.2,28.9c-3-3-6.4-5.2-9.8-6.8l-2.3,2.3c3,1.2,6.1,3.1,8.9,5.5c-5.4,5-11.5,7.6-17.9,7.6c-1.1,0-2.3-0.1-3.6-0.4
				l-2.5,2.5c2.2,0.6,4.3,0.9,6.1,0.9c7.7,0,14.9-3.2,21.2-9.5c0.3-0.3,0.4-0.7,0.4-1.1S51.5,29.2,51.2,28.9z"/>
		</g>
		
			<line fill="none" stroke="#000000" stroke-width="3" stroke-linecap="round" stroke-linejoin="round" stroke-miterlimit="10" x1="17" y1="43" x2="43" y2="17"/>
		<g>
			<path d="M26.5,30l3.5-3.5C28,26.5,26.5,28,26.5,30z"/>
			<path d="M30,33.5c1.9,0,3.5-1.6,3.5-3.5L30,33.5C30,33.5,30,33.5,30,33.5z"/>
		</g>
	</g>
</g>
<g id="Layer_4">
</g>
<g id="Layer_5">
</g>
<g id="Layer_6">
</g>
<g id="Layer_7">
</g>
<g id="Layer_8">
</g>
<g id="Layer_9">
</g>
<g id="Layer_10">
</g>
<g id="Layer_11">
</g>
<g id="Layer_12">
</g>
<g id="Layer_13">
</g>
<g id="Layer_14">
</g>
</svg>
