<?xml version="1.0" encoding="utf-8"?>
<!-- Generator: Adobe Illustrator 18.1.1, SVG Export Plug-In . SVG Version: 6.00 Build 0)  -->
<svg version="1.1" xmlns="http://www.w3.org/2000/svg" xmlns:xlink="http://www.w3.org/1999/xlink" x="0px" y="0px"
	 viewBox="0 0 60 60" enable-background="new 0 0 60 60" xml:space="preserve">
<g id="Layer_1">
</g>
<g id="Layer_2">
</g>
<g id="Layer_22">
</g>
<g id="Layer_23">
</g>
<g id="Layer_15">
</g>
<g id="Layer_16">
</g>
<g id="Layer_17">
</g>
<g id="Layer_18">
</g>
<g id="Layer_19">
</g>
<g id="Layer_20">
</g>
<g id="Layer_21">
</g>
<g id="Layer_3">
</g>
<g id="Layer_4">
</g>
<g id="Layer_5">
	<g id="User">
		<path fill="none" stroke="#000000" stroke-width="3" stroke-linecap="round" stroke-linejoin="round" stroke-miterlimit="10" d="
			M39.7,23.3c1-0.4,1.3,1.2,0.6,3.2c-0.5,1.5-1.4,2.6-2,2.5c-1.6,4.1-4.4,7.6-8.3,7.9l0,0c-3.8-0.4-6.6-3.9-8.2-7.9
			c-0.6,0.1-1.5-1-2-2.5c-0.7-2-0.3-3.6,0.6-3.2c-0.6-6.7,2.8-12.6,9.6-12.4C37,10.9,40.3,16.6,39.7,23.3z"/>
		<path fill="none" stroke="#000000" stroke-width="3" stroke-linecap="round" stroke-linejoin="round" stroke-miterlimit="10" d="
			M24.6,34.3c0.1,0.8,0.1,1.9-0.3,2.9c-0.9,2.1-8.3,0.9-10.2,4c-1.9,3.1-3,4.5-1.4,5.3c1.6,0.8,8.5,2.9,17.3,2.7
			c8.8,0.2,15.7-1.9,17.3-2.7c1.6-0.8,0.4-2.2-1.4-5.3c-1.9-3.1-9.2-1.9-10.2-4c-0.5-1.1-0.4-2.3-0.3-3.1"/>
	</g>
</g>
<g id="Layer_6">
</g>
<g id="Layer_7">
</g>
<g id="Layer_8">
</g>
<g id="Layer_9">
</g>
<g id="Layer_10">
</g>
<g id="Layer_11">
</g>
<g id="Layer_12">
</g>
<g id="Layer_13">
</g>
<g id="Layer_14">
</g>
</svg>
