<?xml version="1.0" encoding="utf-8"?>
<!-- Generator: Adobe Illustrator 18.1.1, SVG Export Plug-In . SVG Version: 6.00 Build 0)  -->
<svg version="1.1" xmlns="http://www.w3.org/2000/svg" xmlns:xlink="http://www.w3.org/1999/xlink" x="0px" y="0px"
	 viewBox="0 0 60 60" enable-background="new 0 0 60 60" xml:space="preserve">
<g id="Layer_1">
</g>
<g id="Layer_2">
</g>
<g id="Layer_22">
</g>
<g id="Layer_23">
</g>
<g id="Layer_15">
</g>
<g id="Layer_16">
</g>
<g id="Layer_17">
</g>
<g id="Layer_18">
</g>
<g id="Layer_19">
	<path id="Star_1_" stroke="#000000" stroke-width="3" stroke-miterlimit="10" d="M30,10.7L30,10.7c-0.6,0-1.2,0.3-1.5,0.9l-6,9.8
		l-11.2,2.7c-0.6,0.1-1.1,0.6-1.3,1.2c-0.2,0.6-0.1,1.2,0.3,1.7l7.5,8.8l-0.9,11.5c0,0.6,0.2,1.2,0.7,1.6c0.3,0.2,0.7,0.3,1.1,0.3
		c0.2,0,0.5,0,0.7-0.1L30,44.7l10.7,4.4c0.2,0.1,0.5,0.1,0.7,0.1c0.4,0,0.7-0.1,1.1-0.3c0.5-0.4,0.8-1,0.7-1.6l-0.9-11.5l7.5-8.8
		c0.4-0.5,0.5-1.1,0.3-1.7c-0.2-0.6-0.7-1-1.3-1.2l-11.2-2.7l-6-9.8C31.2,11.1,30.6,10.7,30,10.7L30,10.7z"/>
</g>
<g id="Layer_20">
</g>
<g id="Layer_21">
</g>
<g id="Layer_3">
</g>
<g id="Layer_4">
</g>
<g id="Layer_5">
</g>
<g id="Layer_6">
</g>
<g id="Layer_7">
</g>
<g id="Layer_8">
</g>
<g id="Layer_9">
</g>
<g id="Layer_10">
</g>
<g id="Layer_11">
</g>
<g id="Layer_12">
</g>
<g id="Layer_13">
</g>
<g id="Layer_14">
</g>
</svg>
